<?xml version="1.0" encoding="UTF-8"?>
<svg id="Capa_1" data-name="Capa 1" xmlns="http://www.w3.org/2000/svg" xmlns:xlink="http://www.w3.org/1999/xlink" viewBox="0 0 1000 1500">
  <defs>
    <style>
      .cls-1 {
        fill: none;
      }

      .cls-2 {
        clip-path: url(#clippath);
      }
    </style>
    <clipPath id="clippath">
      <rect class="cls-1" width="1000" height="1500"/>
    </clipPath>
  </defs>
  <g class="cls-2">
    <path d="M944,0H56C25.07,0,0,25.07,0,56v1388c0,30.93,25.07,56,56,56h888c30.93,0,56-25.07,56-56V56c0-30.93-25.07-56-56-56ZM960,1332c0,22.09-17.91,40-40,40H80c-22.09,0-40-17.91-40-40V56c0-8.84,7.16-16,16-16h888c8.84,0,16,7.16,16,16v1276Z"/>
  </g>
</svg>